<?xml version="1.0" encoding="utf-8"?>
<!-- Generator: Adobe Illustrator 16.0.0, SVG Export Plug-In . SVG Version: 6.00 Build 0)  -->
<!DOCTYPE svg PUBLIC "-//W3C//DTD SVG 1.1//EN" "http://www.w3.org/Graphics/SVG/1.1/DTD/svg11.dtd">
<svg version="1.1" id="Слой_1" xmlns="http://www.w3.org/2000/svg" xmlns:xlink="http://www.w3.org/1999/xlink" x="0px" y="0px"
	 width="500px" height="378px" viewBox="0 61.5 500 378" enable-background="new 0 61.5 500 378" xml:space="preserve">
<g>
	<g>
		<g>
			
				<linearGradient id="SVGID_1_" gradientUnits="userSpaceOnUse" x1="360.3848" y1="-43.2124" x2="360.3848" y2="24.6614" gradientTransform="matrix(1 0 0 -1 -96 345)">
				<stop  offset="0" style="stop-color:#D5E4FF"/>
				<stop  offset="1" style="stop-color:#EDFFFE"/>
			</linearGradient>
			<path fill="url(#SVGID_1_)" d="M337.647,363.11H191.12c-3.016,0-5.462-2.444-5.462-5.462v-16.968
				c0-3.017,2.446-5.462,5.462-5.462h146.527c3.018,0,5.464,2.445,5.464,5.462v16.968
				C343.111,360.666,340.665,363.11,337.647,363.11z"/>
			<g>
				<path fill="#609A3E" d="M375.75,190.409c-0.752-0.261-1.167-0.447-1.167-0.447c0.381-0.136,0.786-0.305,1.217-0.513
					c5.884-2.816,16.294-12.633,27.246-42.548c11.756-32.104,29.928-21.896,29.928-21.896c-9.48,4.505-7.745,25.839-21.932,50.408
					C398.793,196.629,380.515,192.053,375.75,190.409z"/>
				<g>
					
						<linearGradient id="SVGID_2_" gradientUnits="userSpaceOnUse" x1="2891.7021" y1="3912.6709" x2="2891.7021" y2="3966.0947" gradientTransform="matrix(0.8492 0.5282 0.5282 -0.8492 -4144.1387 1992.3623)">
						<stop  offset="0.0052" style="stop-color:#3C6127"/>
						<stop  offset="1" style="stop-color:#639C38"/>
					</linearGradient>
					<path fill="url(#SVGID_2_)" d="M375.75,190.409c-0.752-0.261-1.167-0.447-1.167-0.447c0.381-0.136,0.786-0.305,1.217-0.513
						c9.09-2.345,20.312-8.076,26.019-19.449c4.367-8.693,10.991-26.819,11.055-26.999l0.877,0.315
						c-0.07,0.182-6.713,18.363-11.099,27.104C396.748,182.174,385.106,188.05,375.75,190.409z"/>
				</g>
			</g>
			<g>
				<path fill="#609A3E" d="M418.644,196.259c-29.184,15.88-41.594-7.389-42.531-9.256c-0.041-0.081-0.059-0.12-0.059-0.12
					c0.87,0.142,1.728,0.244,2.57,0.296c22.464,1.637,35.848-24.261,51.62-33.695c16.358-9.787,28.833,2.477,28.833,2.477
					C443.566,150.843,449.025,179.72,418.644,196.259z"/>
				<g>
					
						<linearGradient id="SVGID_3_" gradientUnits="userSpaceOnUse" x1="3243.1455" y1="6632.5586" x2="3243.1455" y2="6699.6045" gradientTransform="matrix(0.6206 0.7842 0.7842 -0.6206 -6831.0859 1768.4253)">
						<stop  offset="0.0052" style="stop-color:#3C6127"/>
						<stop  offset="1" style="stop-color:#639C38"/>
					</linearGradient>
					<path fill="url(#SVGID_3_)" d="M396.334,191.92c-7.299,0.305-14.371-1.959-20.222-4.917c-0.041-0.081-0.059-0.12-0.059-0.12
						c0.87,0.142,1.728,0.244,2.57,0.296c5.281,2.388,11.392,4.073,17.67,3.812c8.075-0.337,15.056-3.859,20.759-10.458
						c18.078-20.933,24.133-19.116,24.385-19.03l-0.156,0.438l-0.142,0.443c0,0-0.007-0.001-0.017-0.005
						c-0.352-0.07-6.375-0.911-23.366,18.759C411.881,187.946,404.672,191.57,396.334,191.92z"/>
				</g>
			</g>
			
				<linearGradient id="SVGID_4_" gradientUnits="userSpaceOnUse" x1="458.2949" y1="-67.4351" x2="285.5859" y2="262.5297" gradientTransform="matrix(1 0 0 -1 -96 345)">
				<stop  offset="0" style="stop-color:#D5E4FF"/>
				<stop  offset="1" style="stop-color:#EDFFFE"/>
			</linearGradient>
			<path fill="url(#SVGID_4_)" d="M392.188,350.689H136.58c-6.179,0-11.187-5.009-11.187-11.187V111.247
				c0-6.179,5.008-11.187,11.187-11.187h255.608c6.18,0,11.187,5.009,11.187,11.187v228.256
				C403.375,345.681,398.368,350.689,392.188,350.689z"/>
			<g>
				<g>
					<g>
						<path fill="#FFFFFF" d="M185.266,264.694c3.537-9.762,0.164-20.344-7.613-26.391c-1.883-1.464-4.023-2.662-6.388-3.52
							c-7.163-2.594-14.768-1.469-20.698,2.385c-4.109,2.672-7.415,6.654-9.213,11.618c-0.179,0.493-0.341,0.992-0.485,1.488
							c-0.651,2.254-0.947,4.537-0.915,6.787c0.13,9.431,6.01,18.234,15.403,21.637C167.482,283.09,180.874,276.821,185.266,264.694
							z M157.346,273.202c-7.042-2.551-11.449-9.15-11.547-16.22c-0.024-1.686,0.197-3.397,0.687-5.089
							c0.108-0.373,0.229-0.747,0.363-1.116c1.349-3.721,3.828-6.707,6.909-8.71c4.446-2.89,10.147-3.735,15.517-1.789
							c1.773,0.642,3.378,1.541,4.791,2.638c5.831,4.534,8.361,12.467,5.708,19.787
							C176.479,271.796,166.438,276.496,157.346,273.202z"/>
					</g>
				</g>
				<g>
					<g>
						<path fill="#1A598C" d="M153.756,242.067l-3.189-4.898c5.93-3.854,13.535-4.979,20.698-2.385
							c2.365,0.856,4.506,2.055,6.388,3.519l-3.589,4.614c-1.413-1.097-3.017-1.996-4.791-2.638
							C163.903,238.333,158.203,239.177,153.756,242.067z"/>
					</g>
				</g>
				<g>
					<g>
						<path fill="#2273B5" d="M146.485,251.894l-5.617-1.618c0.145-0.497,0.307-0.995,0.485-1.488
							c1.798-4.964,5.104-8.947,9.213-11.618l3.189,4.898c-3.081,2.002-5.56,4.988-6.908,8.709
							C146.715,251.146,146.593,251.521,146.485,251.894z"/>
					</g>
				</g>
				<g>
					<g>
						<path fill="#3D96E0" d="M139.953,257.062c-0.032-2.248,0.264-4.531,0.915-6.787l5.617,1.618
							c-0.49,1.69-0.71,3.403-0.688,5.089L139.953,257.062z"/>
					</g>
				</g>
			</g>
			<g>
				<g>
					<g>
						<path fill="#FFFFFF" d="M250.776,261.063c1.922-10.204-3.107-20.106-11.756-24.826c-2.093-1.143-4.398-1.981-6.871-2.447
							c-7.486-1.41-14.812,0.923-20.045,5.68c-3.627,3.297-6.25,7.758-7.227,12.947c-0.097,0.517-0.178,1.033-0.24,1.547
							c-0.281,2.331-0.206,4.631,0.187,6.845c1.644,9.286,8.861,17.03,18.678,18.88
							C236.178,282.078,248.388,273.739,250.776,261.063z M224.586,273.947c-7.361-1.388-12.771-7.192-14.004-14.154
							c-0.293-1.66-0.35-3.387-0.14-5.133c0.047-0.387,0.106-0.773,0.179-1.162c0.733-3.889,2.7-7.233,5.418-9.706
							c3.925-3.568,9.417-5.317,15.028-4.258c1.853,0.349,3.581,0.978,5.152,1.833c6.483,3.538,10.254,10.962,8.814,18.613
							C243.244,269.483,234.088,275.736,224.586,273.947z"/>
					</g>
				</g>
				<g>
					<g>
						<path fill="#4B59C7" d="M216.039,243.793l-3.934-4.321c5.233-4.757,12.56-7.09,20.045-5.68
							c2.472,0.466,4.778,1.304,6.871,2.447l-2.801,5.13c-1.57-0.856-3.299-1.485-5.152-1.834
							C225.456,238.477,219.964,240.226,216.039,243.793z"/>
					</g>
				</g>
				<g>
					<g>
						<path fill="#6F5BE0" d="M210.442,254.66l-5.804-0.694c0.062-0.515,0.143-1.031,0.24-1.546c0.977-5.19,3.6-9.651,7.227-12.948
							l3.935,4.321c-2.719,2.472-4.685,5.816-5.419,9.707C210.548,253.887,210.489,254.272,210.442,254.66z"/>
					</g>
				</g>
				<g>
					<g>
						<path fill="#B487FE" d="M204.826,260.811c-0.393-2.214-0.469-4.515-0.187-6.845l5.804,0.694
							c-0.211,1.748-0.155,3.473,0.139,5.134L204.826,260.811z"/>
					</g>
				</g>
			</g>
			<g>
				<g>
					<g>
						<path fill="#FFFFFF" d="M303.313,236.124c-9.166-4.876-20.118-3.028-27.202,3.819c-1.715,1.658-3.202,3.608-4.385,5.829
							c-3.577,6.726-3.536,14.412-0.555,20.826c2.064,4.446,5.542,8.279,10.204,10.759c0.462,0.246,0.932,0.479,1.403,0.69
							c2.142,0.962,4.36,1.578,6.59,1.863c9.355,1.199,18.898-3.38,23.591-12.199C319.019,256.323,314.698,242.183,303.313,236.124z
							 M307.801,264.965c-3.518,6.613-10.672,10.046-17.688,9.146c-1.671-0.213-3.335-0.674-4.939-1.396
							c-0.355-0.16-0.707-0.332-1.055-0.518c-3.494-1.859-6.102-4.734-7.647-8.066c-2.236-4.81-2.27-10.573,0.415-15.614
							c0.887-1.665,2.002-3.126,3.287-4.371c5.309-5.133,13.521-6.519,20.394-2.863
							C309.104,245.826,312.342,256.429,307.801,264.965z"/>
					</g>
				</g>
				<g>
					<g>
						<path fill="#1A598C" d="M276.471,264.133l-5.299,2.467c-2.981-6.414-3.023-14.103,0.554-20.827
							c1.183-2.221,2.671-4.171,4.385-5.829l4.063,4.203c-1.285,1.244-2.4,2.707-3.286,4.371
							C274.202,253.559,274.234,259.322,276.471,264.133z"/>
					</g>
				</g>
				<g>
					<g>
						<path fill="#2273B5" d="M285.174,272.715l-2.395,5.332c-0.472-0.212-0.941-0.444-1.404-0.69
							c-4.661-2.479-8.139-6.313-10.203-10.759l5.3-2.467c1.546,3.332,4.154,6.207,7.647,8.066
							C284.467,272.383,284.818,272.557,285.174,272.715z"/>
					</g>
				</g>
				<g>
					<g>
						<path fill="#3788CC" d="M289.368,279.91c-2.229-0.285-4.447-0.9-6.589-1.863l2.395-5.332c1.604,0.722,3.269,1.183,4.939,1.396
							L289.368,279.91z"/>
					</g>
				</g>
			</g>
			<rect x="139.95" y="291.195" fill="#C4C4C4" width="46.718" height="3.604"/>
			<rect x="139.95" y="298.853" fill="#C4C4C4" width="34.961" height="3.604"/>
			<rect x="204.468" y="291.195" fill="#C4C4C4" width="25.761" height="3.604"/>
			<rect x="204.468" y="298.853" fill="#C4C4C4" width="38.239" height="3.604"/>
			<rect x="273.225" y="291.195" fill="#C4C4C4" width="28.629" height="3.604"/>
			<rect x="273.225" y="298.853" fill="#C4C4C4" width="33.162" height="3.604"/>
			<rect x="345.697" y="138.104" fill="#B8D6FF" width="33.973" height="3.409"/>
			<rect x="345.697" y="148.656" fill="#B8D6FF" width="39.047" height="3.409"/>
			<rect x="345.639" y="159.149" fill="#B8D6FF" width="20.2" height="3.409"/>
			<rect x="345.639" y="169.643" fill="#B8D6FF" width="31.126" height="3.409"/>
			<rect x="139.95" y="316.065" fill="#FFFFFF" width="148.658" height="3.485"/>
			<rect x="139.95" y="324.2" fill="#FFFFFF" width="160.628" height="3.486"/>
			<rect x="139.95" y="332.335" fill="#FFFFFF" width="104.225" height="3.486"/>
			<rect x="139.95" y="316.065" fill="#FFA347" width="77.404" height="3.485"/>
			<rect x="139.95" y="324.2" fill="#FFA347" width="83.637" height="3.486"/>
			<rect x="139.95" y="332.335" fill="#FFA347" width="54.268" height="3.486"/>
			<rect x="161.667" y="202.204" fill="#D6D6D6" width="30.28" height="3.73"/>
			<rect x="154.32" y="195.56" fill="#D6D6D6" width="44.973" height="3.73"/>
			
				<linearGradient id="SVGID_5_" gradientUnits="userSpaceOnUse" x1="272.875" y1="221.2334" x2="272.875" y2="137.538" gradientTransform="matrix(1 0 0 -1 -96 345)">
				<stop  offset="0" style="stop-color:#40D5E6"/>
				<stop  offset="1" style="stop-color:#5577FF"/>
			</linearGradient>
			<circle fill="url(#SVGID_5_)" cx="176.876" cy="144.352" r="7.819"/>
			
				<linearGradient id="SVGID_6_" gradientUnits="userSpaceOnUse" x1="272.8066" y1="221.2329" x2="272.8066" y2="137.5432" gradientTransform="matrix(1 0 0 -1 -96 345)">
				<stop  offset="0" style="stop-color:#40D5E6"/>
				<stop  offset="1" style="stop-color:#5577FF"/>
			</linearGradient>
			<path fill="url(#SVGID_6_)" d="M190.979,169.839v14.869c-4.318,1.964-9.118,3.056-14.172,3.056s-9.854-1.091-14.172-3.056
				v-14.869c0-7.824,6.343-14.172,14.172-14.172C184.637,155.667,190.979,162.016,190.979,169.839z"/>
			<rect x="225.735" y="132.79" fill="#FFFFFF" width="72.827" height="4.694"/>
			<rect x="306.389" y="132.79" fill="#FFFFFF" width="28.3" height="4.694"/>
			<rect x="225.735" y="122.098" fill="#FFFFFF" width="34.199" height="4.694"/>
			<g>
				<g>
					<rect x="226.187" y="151.084" fill="#BDE1FF" width="0.612" height="55.635"/>
				</g>
				<g>
					<rect x="241.688" y="151.084" fill="#BDE1FF" width="0.613" height="55.635"/>
				</g>
				<g>
					<rect x="257.188" y="151.084" fill="#BDE1FF" width="0.611" height="55.635"/>
				</g>
				<g>
					<rect x="272.688" y="151.084" fill="#BDE1FF" width="0.61" height="55.635"/>
				</g>
				<g>
					<rect x="288.188" y="151.084" fill="#BDE1FF" width="0.612" height="55.635"/>
				</g>
				<g>
					<rect x="303.688" y="151.084" fill="#BDE1FF" width="0.611" height="55.635"/>
				</g>
				<g>
					<rect x="319.188" y="151.084" fill="#BDE1FF" width="0.611" height="55.635"/>
				</g>
				<g>
					<rect x="334.688" y="151.084" fill="#BDE1FF" width="0.612" height="55.635"/>
				</g>
			</g>
			<polygon fill="#4AAFFF" points="226.493,188.296 237.049,177.74 242.188,182.878 253.419,171.646 262.318,180.545 
				273.707,169.157 281.511,176.96 301.381,157.09 316.272,171.981 325.289,162.964 334.995,172.669 334.995,206.719 
				226.493,206.719 			"/>
			<polygon fill="#6F5BE0" points="226.493,195.288 234.932,186.849 240.264,192.182 246.438,186.008 258.072,197.641 
				272.615,183.097 277.832,188.313 292.837,173.308 306.541,187.012 334.97,158.583 334.97,206.719 226.493,206.719 			"/>
			<rect x="226.187" y="146.397" fill="#BDE1FF" width="6.497" height="1.375"/>
			<rect x="241.688" y="146.397" fill="#BDE1FF" width="4.446" height="1.375"/>
			<rect x="257.188" y="146.397" fill="#BDE1FF" width="5.492" height="1.375"/>
			<rect x="272.688" y="146.397" fill="#BDE1FF" width="4.089" height="1.375"/>
			<rect x="288.188" y="146.397" fill="#BDE1FF" width="3.417" height="1.375"/>
			<rect x="303.688" y="146.397" fill="#BDE1FF" width="6.64" height="1.375"/>
			<rect x="319.188" y="146.397" fill="#BDE1FF" width="4.628" height="1.375"/>
			<rect x="334.688" y="146.397" fill="#BDE1FF" width="2.922" height="1.375"/>
			<path opacity="0.73" fill="#FFFFFF" enable-background="new    " d="M421.991,342.459h-70.368c-4.541,0-8.222-3.681-8.222-8.221
				V233.229c0-4.541,3.681-8.223,8.222-8.223h70.368c4.541,0,8.222,3.682,8.222,8.223v101.009
				C430.213,338.778,426.532,342.459,421.991,342.459z"/>
			<g>
				<rect x="363.912" y="244.221" fill="#D6D6D6" width="2.559" height="79.025"/>
				<rect x="378.323" y="244.221" fill="#D6D6D6" width="2.558" height="79.025"/>
				<rect x="392.734" y="244.221" fill="#D6D6D6" width="2.557" height="79.025"/>
				<rect x="407.144" y="244.221" fill="#D6D6D6" width="2.559" height="79.025"/>
			</g>
			
				<linearGradient id="SVGID_7_" gradientUnits="userSpaceOnUse" x1="461.1914" y1="70.0986" x2="461.1914" y2="-2.6136" gradientTransform="matrix(1 0 0 -1 -96 345)">
				<stop  offset="0" style="stop-color:#FFC05C"/>
				<stop  offset="1" style="stop-color:#FF3857"/>
			</linearGradient>
			<rect x="362.79" y="283.733" fill="url(#SVGID_7_)" width="4.804" height="32.074"/>
			
				<linearGradient id="SVGID_8_" gradientUnits="userSpaceOnUse" x1="475.6016" y1="70.0981" x2="475.6016" y2="-2.6151" gradientTransform="matrix(1 0 0 -1 -96 345)">
				<stop  offset="0" style="stop-color:#FFC05C"/>
				<stop  offset="1" style="stop-color:#FF3857"/>
			</linearGradient>
			<rect x="377.2" y="256.771" fill="url(#SVGID_8_)" width="4.805" height="32.074"/>
			
				<linearGradient id="SVGID_9_" gradientUnits="userSpaceOnUse" x1="490.0117" y1="70.0986" x2="490.0117" y2="-2.6145" gradientTransform="matrix(1 0 0 -1 -96 345)">
				<stop  offset="0" style="stop-color:#FFC05C"/>
				<stop  offset="1" style="stop-color:#FF3857"/>
			</linearGradient>
			<rect x="391.61" y="274.784" fill="url(#SVGID_9_)" width="4.805" height="32.074"/>
			
				<linearGradient id="SVGID_10_" gradientUnits="userSpaceOnUse" x1="504.4219" y1="70.0986" x2="504.4219" y2="-2.6136" gradientTransform="matrix(1 0 0 -1 -96 345)">
				<stop  offset="0" style="stop-color:#FFC05C"/>
				<stop  offset="1" style="stop-color:#FF3857"/>
			</linearGradient>
			<rect x="406.021" y="271.066" fill="url(#SVGID_10_)" width="4.805" height="32.074"/>
			<g>
				
					<linearGradient id="SVGID_11_" gradientUnits="userSpaceOnUse" x1="272.8076" y1="214.5698" x2="272.8076" y2="131.8247" gradientTransform="matrix(1 0 0 -1 -96 345)">
					<stop  offset="0" style="stop-color:#D3DAE0"/>
					<stop  offset="1" style="stop-color:#FFFFFF"/>
				</linearGradient>
				<path fill="url(#SVGID_11_)" d="M176.807,188.695c-5.08,0-9.978-1.056-14.557-3.14c-12.553-5.705-20.664-18.298-20.664-32.082
					c0-19.421,15.8-35.221,35.222-35.221s35.222,15.8,35.222,35.221c0,13.784-8.111,26.377-20.666,32.082
					C186.784,187.639,181.887,188.695,176.807,188.695z M176.807,120.111c-18.396,0-33.362,14.966-33.362,33.362
					c0,13.056,7.684,24.985,19.575,30.389c4.336,1.974,8.976,2.974,13.788,2.974c4.813,0,9.451-1,13.788-2.974
					c11.891-5.404,19.574-17.332,19.574-30.389C210.168,135.077,195.203,120.111,176.807,120.111z"/>
			</g>
		</g>
		<g>
			<path fill="#6F5BE0" d="M82.035,274.2c0,0,6.524-14.781-1.044-13.558c0,0-2.577,2.131-5.221,6.469
				c-2.002,3.287-6.167,11.985-6.013,14.929c0.154,2.94,2.247,5.136,4.506,9.86c0,0,4.697,8.77,4.896,9.826l4.965-2.579
				c0,0-4.208-8.384-7.173-15.755L82.035,274.2z"/>
			
				<linearGradient id="SVGID_12_" gradientUnits="userSpaceOnUse" x1="-1741.7026" y1="43.4917" x2="-1638.8486" y2="43.4917" gradientTransform="matrix(1 0 0 -1 1782.627 345)">
				<stop  offset="0" style="stop-color:#FF9F55"/>
				<stop  offset="1" style="stop-color:#FFD255"/>
			</linearGradient>
			<polygon fill="url(#SVGID_12_)" points="43.818,318.516 143.778,301.495 140.884,284.501 40.924,301.521 			"/>
			
				<rect x="142.281" y="285.999" transform="matrix(0.9858 -0.1681 0.1681 0.9858 -47.1003 28.5263)" fill="#2D3038" width="5.416" height="13.085"/>
			<path fill="#EEA886" d="M119.799,399.414h1.232c0,0-0.411-4.65,0.729-4.695c1.139-0.046,3.964,3.783,5.651,4.376
				c1.687,0.593,10.346,1.093,10.392-0.502c0.045-1.594-3.327-2.233-4.375-2.688c-1.049-0.456-6.154-5.426-7.065-6.016
				c-0.913-0.594-2.468-4.713-2.468-4.713l-4.834-0.215c0,0-0.273,3.851-0.566,5.889c-0.109,0.755-0.188,1.442-0.199,1.91
				C118.25,394.491,119.799,399.414,119.799,399.414z"/>
			<path fill="#EEA886" d="M88.656,398.494h1.026v-4.327c0.854,0.072,3.727,2.79,4.615,3.576c0.889,0.785,2.107,0.751,5.851,0.988
				c3.743,0.238,4.096-2.002,3.503-2.766c-0.592-0.762-2.507-1.097-3.503-1.572c-0.997-0.477-4.928-4.912-5.977-5.96
				c-1.048-1.049-1.687-4.052-1.687-4.052l-4.375,0.382c0,0,0.028,2.748-0.471,5.054l0,0c-0.001,0.007-0.002,0.013-0.004,0.018
				c-0.042,0.198-0.089,0.39-0.14,0.577C86.845,392.809,88.656,398.494,88.656,398.494z"/>
			<path fill="#1D3B54" d="M104.835,300.411c0,0,1.655,3.91,1.8,4.897c0.146,0.988,4.017,10.346,5.137,16.654
				c0.67,3.776,2.52,15.598,2.67,17.102c0.256,2.572,1.468,8.252,1.654,10.878c0.104,1.469,7.338,24.016,9.089,35.787
				c0,0-4.16,0.616-7.286-0.21c0,0-6.352-12.166-9.878-29.422c-2.124-10.393-4.001-15.935-5.647-20.215
				c-1.646-4.28-10.964-16.404-11.938-17.766c-0.972-1.362-7.068-8.889-1.296-17.043
				C94.912,292.921,104.835,300.411,104.835,300.411z"/>
			<path fill="#1D3B54" d="M84.001,335.046c0.528,3.511-0.027,8.122-1.129,20.958c-1.104,12.835,1.93,28.378,1.93,28.378
				c3.81,1.304,8.197,0,8.197,0c-0.1-0.902,0-31.287,0-33.993c0-2.708,0.778-5.78,0.978-8.888c0.137-2.118,1.123-6.021,2.231-10.009
				c0.332-1.194,0.675-2.394,1.009-3.557c0-0.001,0-0.001,0-0.001c0.188-0.652,0.372-1.293,0.55-1.912
				c1.561-5.415,3.662-26.323,3.662-26.323s-11.638-9.374-17.304-0.55s-2.757,15.241-2.557,16.345
				C81.768,316.597,83.473,331.537,84.001,335.046z"/>
			<path fill="#122536" d="M88.827,316.188c0.091,0.201,5.889,13.072,7.381,15.304c0.332-1.195,0.675-2.395,1.009-3.558
				c0-0.001,0-0.001,0-0.001S89.021,316.472,88.827,316.188z"/>
			<path fill="#172F42" d="M88.656,398.494h1.026v-4.327c0.854,0.072,3.727,2.79,4.615,3.576c0.889,0.785,2.107,0.751,5.851,0.988
				c3.743,0.238,4.096-2.002,3.503-2.766c-0.592-0.762-2.507-1.097-3.503-1.572c-4.004,0.213-8.891-5.416-11.236-5.404
				c-1.247,0.006-1.234,0.697-1.272,0.827l0,0c-0.002,0.007-0.002,0.013-0.004,0.018c-0.042,0.198-0.089,0.39-0.14,0.578
				C86.845,392.809,88.656,398.494,88.656,398.494z"/>
			<path fill="#172F42" d="M119.799,399.414h1.232c0,0-0.411-4.65,0.729-4.695c1.139-0.046,3.964,3.783,5.651,4.376
				c1.687,0.593,10.346,1.093,10.392-0.502c0.045-1.594-3.327-2.233-4.375-2.688c-3.573-0.01-9.381-3.939-11.182-4.737
				s-3.75-0.318-3.75-0.318c-0.109,0.755-0.188,1.442-0.2,1.91C118.25,394.491,119.799,399.414,119.799,399.414z"/>
			<path fill="#EEA886" d="M94.561,251.325c0,0-1.856,4.915-0.413,8.712c0,0-6.809-0.444-7.067-1.237
				c-0.258-0.796,0.273-8.156-0.663-10.333C85.482,246.292,94.561,251.325,94.561,251.325z"/>
			<path fill="#6F5BE0" d="M95.219,258.375c0,0,4.022,1.431,5.842,1.829c1.818,0.397,5.622,2.198,5.313,8.981
				c-0.309,6.784-1.444,12.666-1.856,15.582c-0.413,2.915-0.155,10.333,0.516,13.938c0,0-9.645,2.438-20.994,0
				c0,0,2.011-6.148,1.96-7.737c-0.052-1.589-6.706-14.68-7.016-16.747c-0.309-2.065-1.651-11.182,1.393-13.195
				c3.042-2.015,5.519-1.749,6.808-2.649C88.474,257.474,93.337,257.729,95.219,258.375z"/>
			<path fill="#6F5BE0" d="M79.694,309.363c16.479,4.374,29.594,0.019,29.594,0.019c-1.196-2.458-2.075-4.91-2.713-7.284
				c0-0.001-0.001-0.001-0.001-0.002c-0.451-1.679-0.78-3.315-1.015-4.889l0,0c-1.339-8.979,0.408-15.854,0.408-15.854
				c-1.902-15.655-25.59-20.328-27.488-15.365c-1.897,4.962,3.677,26.29,3.958,28.118C82.72,295.933,79.694,309.363,79.694,309.363z
				"/>
			<path fill="#EEA886" d="M88.625,231.615c2.737-0.939,10.136-1.938,12.032,9.419s-2.233,11.552-6.474,11.229
				s-10.875-7.988-11.383-10.318C82.292,239.614,80.816,234.295,88.625,231.615z"/>
			<path fill="#E8734D" d="M99.132,235.977c0,0-2.259,4.835-5.225,6.52c0,0-1.857,5.137-5.878,7.215c0,0-10.672-7.07-4.479-15.471
				C89.743,225.841,98.434,232.531,99.132,235.977z"/>
			<path fill="#EEA886" d="M94.171,240.821c-0.241-0.59-1.84-1.551-2.557,0.07c-0.717,1.621,1.858,4.476,2.563,4.322
				C94.883,245.059,95.081,243.063,94.171,240.821z"/>
			<path fill="#E8734D" d="M83.911,235.54c-0.233-0.364-7.3-3.635-8.771,3.201c-1.47,6.835,5.692,14.786,6.947,18.203
				c1.254,3.419-0.567,11.43-0.567,11.43s4.309-4.073,5.612-8.336C88.565,255.354,89.044,243.547,83.911,235.54z"/>
			<path fill="#E54242" d="M83.555,235.306c0,0,2.163,1.712,2.443,4.413c0,0,0.406-2.107-0.467-3.395
				C84.659,235.038,83.555,235.306,83.555,235.306z"/>
			<path fill="#1D3B54" d="M106.574,302.095c-0.451-1.679-0.78-3.315-1.015-4.89l0,0c0,0-1.085-2.31-1.452-3.414
				c-0.368-1.104-3.095-14.676-3.095-14.676S98.125,291.863,106.574,302.095z"/>
			<path fill="#EEA886" d="M118.706,302.883c0,0,2.125,2.109,2.813,2.323c0.687,0.212,2.012-0.96,6.891-1.32
				c0.429-0.032,1.182,0.352,1.005,0.919c-0.178,0.565-2.301,2.106-3.21,2.342c-0.909,0.235-5.197,1.938-7.287,1.104
				c-2.09-0.837-3.512-3.497-3.512-3.497L118.706,302.883z"/>
			<path fill="#6F5BE0" d="M102.197,260.576c0,0,5.644,2.236,5.977,10.079c0.334,7.844,0.641,11.938,0.947,13.149
				c0.305,1.21,0.892,6.076,2.312,9.004c1.378,2.84,10.421,11.829,10.421,11.829l-4.376,4.116c0,0-12.607-12.65-13.373-14.963
				s-3.917-18.407-4.168-21.12C99.735,270.482,96.851,260.738,102.197,260.576z"/>
			<circle opacity="0.1" fill="#B8B8B8" enable-background="new    " cx="207.743" cy="278.603" r="54.641"/>
			<path opacity="0.3" fill="#869AC2" enable-background="new    " d="M172.453,239.816c0,0,68.052-8.436,81.612,63.388
				c0,0,0-0.001,0.001-0.001c3.904-7.337,6.116-15.709,6.116-24.599c0-28.962-23.478-52.44-52.439-52.44
				C194.152,226.164,181.768,231.335,172.453,239.816z"/>
			<path fill="#3F444F" d="M207.746,215.866c-34.65,0-62.74,28.09-62.74,62.738c0,34.652,28.09,62.741,62.74,62.741
				c34.65,0,62.739-28.089,62.739-62.741C270.485,243.956,242.396,215.866,207.746,215.866z M207.746,331.128
				c-29.009,0-52.523-23.514-52.523-52.524c0-29.007,23.516-52.523,52.523-52.523s52.523,23.516,52.523,52.523
				C260.27,307.614,236.754,331.128,207.746,331.128z"/>
		</g>
		<g>
			<g>
				<path fill="#5C544D" d="M443.601,387.685c0,0,0.509,3.437,0.572,3.953c0.063,0.518,5.668-0.304,5.668-0.304l0.454-4.093
					C450.295,387.241,444.301,387.198,443.601,387.685z"/>
			</g>
			<g>
				<path fill="#1C1E26" d="M444.114,391.2c0,0-1.775,2.072-3.492,2.976c-1.718,0.902-4.416,1.261-5.432,2.196
					c-0.732,0.674-2.669,3.579,4.463,3.521c7.131-0.059,10.569,0.41,11.334-0.704c0.763-1.113-1.106-8.221-1.106-8.221
					S448.192,391.56,444.114,391.2z"/>
			</g>
			<g>
				<path fill="#5C544D" d="M403.452,387.685c0,0,0.509,3.437,0.572,3.953c0.063,0.518,5.667-0.304,5.667-0.304l0.454-4.093
					C410.146,387.241,404.151,387.198,403.452,387.685z"/>
			</g>
			<g>
				<path fill="#1C1E26" d="M403.965,391.2c0,0-1.774,2.072-3.492,2.976c-1.718,0.902-8.036,1.645-9.052,2.579
					c-0.733,0.676-1.952,3.393,8.083,3.138c7.129-0.18,10.569,0.41,11.333-0.704s-1.105-8.221-1.105-8.221
					S408.141,391.599,403.965,391.2z"/>
			</g>
			<g>
				<path fill="#20284D" d="M441.609,298.92c0,0,2.982,8.532,2.591,15.883c-0.394,7.353,1.542,15.399,2.333,23.079
					c0.882,8.563,4.489,28.833,4.621,33.414c0.131,4.58-0.561,19.205-0.561,19.205l-7.224,0.161c0,0-6.066-35.438-7.638-39.054
					c-1.571-3.616-9.363-29.396-9.625-32.288C425.847,316.428,441.609,298.92,441.609,298.92z"/>
			</g>
			<g>
				<path fill="#20284D" d="M411.244,300.438c0,0-3.968,20.151-4.49,24.651c-0.524,4.5-0.874,21.777-1.137,24.59
					c-0.262,2.813-1.745,36.804-3.141,40.983h9.234c0,0,7.089-24.712,7.089-36.403s5.477-25.417,9.012-33.131
					c3.536-7.715,11.628-7.896,13.8-22.208C441.609,298.92,414.187,295.898,411.244,300.438z"/>
			</g>
			<g>
				<path fill="#EEA886" d="M430.012,231.568c0,0-7.278-2.619-10.636,2.718c-3.356,5.337-3.032,16.021,0.636,17.336
					c3.67,1.313,9.182,0.626,11.059-2.713c1.878-3.339,3.576-8.167,3.494-11.393C434.483,234.288,431.922,232.5,430.012,231.568z"/>
			</g>
			<g>
				<path fill="#EEA886" d="M421.235,251.292c0,0,0.294,1.838-0.193,2.743c-0.485,0.904,9.156,0.928,9.156,0.928
					s0.782-4.924,2.267-9.084C433.948,241.72,421.235,251.292,421.235,251.292z"/>
			</g>
			<g>
				<path fill="#FCCCA2" d="M432.464,245.88c0,0-0.666,1.058-3.382,0.647c-2.716-0.411-6.03-3.892-7.164-4.273
					c-1.135-0.381-1.145-1.023-1.145-1.023l-0.71,1l-1.205,0.072c0,0,1.1-3.114-0.559-4.384c-1.657-1.27,1.72-10.078,10.432-7.145
					c0,0,6.69,1.776,6.447,5.441C434.937,239.88,433.962,244.055,432.464,245.88z"/>
			</g>
			<g>
				<path fill="#E2D2CA" d="M420.47,253.927c0,0,0.03-1.73,0.846-1.896c0.814-0.166,8.983-0.924,9.983-0.544v2.015
					C431.298,253.502,429.373,254.643,420.47,253.927z"/>
			</g>
			<g>
				<path fill="#EEA886" d="M420.954,239.897c0.151-0.615,1.774-2.372,2.396-0.491c0.621,1.881-0.939,4.411-1.81,4.195
					C420.671,243.385,420.566,241.456,420.954,239.897z"/>
			</g>
			<g>
				<path fill="#313D75" d="M420.47,253.927c0,0-4.479,1.551-9.667,3.676c0,0-5.969,2.146-6.615,8.493
					c-0.344,3.37-4.068,21.253-4.767,22.768c-0.699,1.513-8.959,25.822-9.251,26.327c-0.29,0.503,6.741,3.315,7.207,3.091
					c0.465-0.225,7.999-22.172,8.755-23.796c0,0,4.338-13.159,4.452-15.121c0,0,0.126,5.591,0.357,7.159
					c0.233,1.57-3.855,32.042-3.739,32.883s18.582,1.909,25.972,1.125c7.391-0.785,13.354-2.423,13.354-2.423
					s-5.815-24.047-5.637-26.713c0.39-5.811,2.405-16.752,2.405-16.752l6.025,10.942l-7.714,19.112l1.768,5.809
					c0,0,14.333-20.861,14.799-22.767c0.465-1.906-0.703-4.334-1.46-5.902c-0.756-1.568-5.726-13.514-6.889-15.194
					c-1.164-1.683-3.131-8.415-7.885-10.289c-3.976-1.566-10.646-2.85-10.646-2.85L420.47,253.927z"/>
			</g>
			<g>
				<polygon fill="#C4C4C4" points="410.614,326.206 376.846,317.866 382.888,295.178 416.654,303.518 				"/>
			</g>
			<g>
				<path fill="#C98462" d="M387.23,320.15c0,0-0.965,1.502-1.318,1.931c-0.352,0.427,0.867,0.696,1.39,0.263
					S387.23,320.15,387.23,320.15z"/>
			</g>
			<g>
				<path fill="#DE9D7D" d="M394.262,325.279c0,0,0.571-0.572,0.692-0.939c0,0,0.17-0.686,0.321-1.166
					c0.049-0.152,0.095-0.282,0.134-0.364c0.161-0.343,0.623-1.049,0.771-1.977c0.149-0.927,0.569-5.088,0.569-5.088l-2.614-0.634
					l-2.103-0.429c0,0-4.539,4.361-4.782,5.209c-0.021,0.084-0.042,0.165-0.055,0.244c-0.132,0.739,0.09,1.341,0.066,1.736
					c-0.009,0.145,0.014,1.591,0.363,1.861c0.486,0.378,0.98,0.449,1.387,0.322c0,0,0.984,0.696,1.806,0.654
					c0,0,0.887,0.672,1.892,0.339C392.709,325.05,393.688,325.633,394.262,325.279z"/>
			</g>
			<g>
				<path fill="#313D75" d="M404.472,298.966c0,0-5.993,17.479-7.095,19.314c0,0-4.396-0.889-7.207-3.091l6.58-18.867
					L404.472,298.966z"/>
			</g>
		</g>
	</g>
</g>
</svg>
